<svg width="16" height="16" viewBox="0 0 16 16" fill="none" xmlns="http://www.w3.org/2000/svg">
<path d="M10.6667 2.66669H5.33341C3.86066 2.66669 2.66675 3.86059 2.66675 5.33335V10.6667C2.66675 12.1394 3.86066 13.3334 5.33341 13.3334H10.6667C12.1395 13.3334 13.3334 12.1394 13.3334 10.6667V5.33335C13.3334 3.86059 12.1395 2.66669 10.6667 2.66669Z" stroke="#0029FF" stroke-linecap="round" stroke-linejoin="round"/>
<path d="M8 10C9.10457 10 10 9.10457 10 8C10 6.89543 9.10457 6 8 6C6.89543 6 6 6.89543 6 8C6 9.10457 6.89543 10 8 10Z" stroke="#0029FF" stroke-linecap="round" stroke-linejoin="round"/>
<path d="M11 5V5.00067" stroke="#0029FF" stroke-width="1.5" stroke-linecap="round" stroke-linejoin="round"/>
</svg>
